# xmcd CD database file
#
# Track frame offsets:
#	150
#	20988
#	46518
#	56475
#	81695
#	97332
#	112689
#	115815
#	128545
#	156933
#	178351
#	195436
#	210068
#	230295
#	283814
#
# Disc length: 4003 seconds
#
# Revision: 1
# Processed by: cddbd v1.5.2PL0 Copyright (c) Steve Scherf et al.
# Submitted via: CDex 1.51
#
DISCID=ca0fa10f
DTITLE=Yesterday's New Quintet - Yesterdays Universe
DYEAR=2007
DGENRE=Jazz
TTITLE0=Otis Jackson Jr Trio_Bitches Brew
TTITLE1=The Jahari Massamba Unit_Umoja
TTITLE2=Young Jazz Rebels_Slave Riot
TTITLE3=The Last Electro Acoustic Space Jazz and Percussion Ensemble_One For The Monica Lingas Band
TTITLE4=Kamala Walker and the Soul Tribe_Street Talkin'
TTITLE5=The Jazzistics_Marcus, Martin and Malcolm
TTITLE6=Suntouch_Two For Strata East
TTITLE7=Sound Directions_She's Gonna Stay
TTITLE8=The Last Electro Acoustic Space Jazz and Percussion Ensemble_Cold Nights And Rainy Days
TTITLE9=Otis Jackson Jr Trio_Free Son
TTITLE10=Jackson Contu_Barumba
TTITLE11=Ahmad Miller_Sunny C
TTITLE12=The Eddie Prince Fusion Band_Mtume's Song
TTITLE13=Yesterdays Universe All Stars_Vibes From The Tribes Suite
TTITLE14=Jackson Conti_Upa Neguinho
EXTD=YEAR: 2007
EXTT0=
EXTT1=
EXTT2=
EXTT3=
EXTT4=
EXTT5=
EXTT6=
EXTT7=
EXTT8=
EXTT9=
EXTT10=
EXTT11=
EXTT12=
EXTT13=
EXTT14=
PLAYORDER=
